<?xml version="1.0" encoding="UTF-8" standalone="no"?>
<!DOCTYPE svg PUBLIC "-//W3C//DTD SVG 1.1//EN" "http://www.w3.org/Graphics/SVG/1.1/DTD/svg11.dtd">
<svg width="100%" height="100%" viewBox="0 0 239 288" version="1.1" xmlns="http://www.w3.org/2000/svg" xmlns:xlink="http://www.w3.org/1999/xlink" xml:space="preserve" xmlns:serif="http://www.serif.com/" style="fill-rule:evenodd;clip-rule:evenodd;stroke-linejoin:round;stroke-miterlimit:2;">
  <animateTransform
    attributeName="transform" attributeType="XML" dur="5s" keyTimes="0;0.5;1" repeatCount="indefinite" type="scale" values="1;0.6;1" calcMode="linear"
  />
  <rect id="Plan-de-travail1" serif:id="Plan de travail1" x="0" y="0" width="238.473" height="287.278" style="fill:none;"/>
  <path class="test" d="M52.46,233.83c-3.33,-4.44 -5.94,-9.29 -8.17,-14.35c-2.15,-4.86 -3.74,-9.91 -4.93,-15.1c-1.55,-6.72 -2.26,-13.53 -2.17,-20.4c0.06,-4.58 0.67,-9.12 1.67,-13.62c2.37,-10.63 7.03,-20.26 12.67,-29.45c3.88,-6.31 8.24,-12.28 12.77,-18.14c5.79,-7.49 11.85,-14.75 17.78,-22.12c6.04,-7.52 12,-15.11 17.24,-23.23c4.27,-6.61 8,-13.51 10.55,-20.98c1.2,-3.53 2.05,-7.16 2.64,-10.86c0.42,-2.63 0.31,-5.26 0.59,-7.87c0.22,-2.06 1.1,-3.62 3.03,-4.46c2.04,-0.89 3.91,-0.62 5.63,0.88c5.32,4.64 10.06,9.84 14.66,15.17c9.28,10.76 17.28,22.37 23.34,35.26c2.46,5.23 4.43,10.64 6.02,16.2c2.45,8.58 3.21,17.3 2.76,26.16c-0.07,1.39 -0.58,2.74 -0.38,4.31c1.28,-0.6 2.28,-1.47 3.29,-2.31c5.28,-4.41 9.63,-9.7 13.93,-15.02c0.54,-0.67 1.11,-1.32 1.66,-1.97c0.78,0.42 0.68,1.28 0.96,1.94c0.61,1.42 1.24,2.85 1.65,4.34c0.61,2.2 1.57,4.27 2.12,6.5c0.49,1.98 1.34,3.86 1.83,5.87c0.22,0.92 0.25,1.86 0.52,2.75c0.34,1.11 0.58,2.24 0.9,3.35c0.29,0.99 0.31,2.01 0.55,2.99c0.37,1.51 0.86,2.99 0.84,4.58c-0.01,0.48 -0.08,0.99 0.06,1.43c0.61,1.92 0.83,3.92 0.85,5.87c0.07,6.96 0.32,13.92 -0.43,20.87c-1.01,0.63 -0.23,1.62 -0.48,2.4c-0.49,0.06 -0.48,0.42 -0.48,0.78l0,2.58c-0.86,0.25 -0.32,0.96 -0.48,1.44l0,0.48c-0.95,0.44 -0.28,1.29 -0.48,1.92l0,0.47c-0.64,0.09 -0.43,0.59 -0.48,0.97c-0.95,0.44 -0.28,1.29 -0.48,1.92l0,0.24c-0.79,0.61 -0.48,1.66 -0.95,2.4c0,0.08 0,0.16 -0.01,0.24c-0.86,0.24 -0.32,0.96 -0.48,1.44l0,0.24c-0.88,0.86 -0.85,2.13 -1.43,3.12c0,0.16 0,0.32 -0.01,0.48c-0.31,0.01 -0.47,0.16 -0.47,0.48c0,0.32 -0.01,0.64 -0.01,0.96c-0.68,0.46 -0.9,1.15 -0.96,1.92c-0.64,0.08 -0.43,0.58 -0.48,0.96c-0.68,0.46 -0.9,1.15 -0.96,1.92c-0.68,0.46 -0.9,1.15 -0.96,1.92c-0.64,0.08 -0.43,0.58 -0.48,0.96c-0.64,0.08 -0.43,0.58 -0.48,0.96c-0.62,0.39 -0.83,1.01 -0.96,1.68c-0.15,0.25 -0.52,0.34 -0.48,0.72c-0.63,0.08 -0.44,0.58 -0.48,0.96c-1.34,0.74 -1.4,2.38 -2.39,3.36c0,0.16 -0.01,0.32 -0.01,0.47c-0.74,0.44 -1.49,0.89 -1.44,1.92c-1.04,0.48 -1.23,1.64 -1.92,2.4c-0.72,0.21 -1.02,0.7 -0.96,1.44c-1.33,0.95 -2.71,1.87 -2.41,3.85c-0.35,-0.32 -0.52,-0.73 -0.46,-1.18c0.22,-1.72 -0.53,-3.3 -1.16,-4.73c-1.39,-3.17 -2.93,-6.27 -4.86,-9.22c-1.5,-2.3 -3.32,-4.3 -4.95,-6.44c-2.53,-3.31 -5.45,-6.32 -8.3,-9.38c-3.8,-4.08 -7.58,-8.21 -10.8,-12.78c-2.08,-2.96 -3.96,-6.01 -5.29,-9.4c-1.4,-3.59 -2.18,-7.23 -2.13,-11.1c0.02,-1.71 0.5,-3.36 0.31,-5.09c-0.32,-2.94 -3.34,-5.21 -6.19,-4.39c-1.68,0.48 -3.12,1.52 -4.49,2.59c-1.65,1.3 -3.53,2.31 -4.95,3.92c-3.58,2.32 -6.67,5.24 -9.76,8.14c-6.06,5.7 -11.75,11.75 -16.57,18.56c-1.64,2.32 -3.34,4.61 -4.79,7.06c-2.06,3.47 -3.99,7.01 -5.54,10.76c-0.94,2.26 -1.85,4.53 -2.57,6.86c-0.57,1.84 -1.18,3.68 -1.52,5.57c-0.48,2.69 -0.77,5.42 -1.14,8.12c-0.54,3.85 -0.17,7.63 0.25,11.4c0.28,2.56 0.93,5.14 1.84,7.59c0.97,2.59 1.72,5.29 3.34,7.6c0.26,1.34 1.34,2.21 1.92,3.36c-1.53,-0.27 -3.04,-0.67 -4.51,-1.08c-2.04,-0.57 -4.09,-1.11 -6.12,-1.72c-2.24,-0.67 -4.43,-1.47 -6.55,-2.35c-3.23,-1.34 -6.48,-2.7 -9.5,-4.52c-1.67,-1.01 -3.41,-1.88 -5.04,-2.98c-1.03,-0.68 -2.02,-1.53 -3.29,-1.76Z" style="fill:#5f577a;fill-rule:nonzero;"/>
  <path d="M122,153.2c1.41,-1.6 3.29,-2.62 4.95,-3.92c1.37,-1.08 2.81,-2.11 4.49,-2.59c2.85,-0.82 5.87,1.45 6.19,4.39c0.19,1.73 -0.29,3.38 -0.31,5.09c-0.05,3.87 0.73,7.51 2.13,11.1c1.33,3.4 3.2,6.45 5.29,9.4c3.23,4.58 7,8.7 10.8,12.78c2.85,3.06 5.77,6.06 8.3,9.38c1.64,2.15 3.45,4.14 4.95,6.44c1.93,2.95 3.47,6.05 4.86,9.22c0.63,1.43 1.37,3 1.16,4.73c-0.06,0.45 0.11,0.87 0.46,1.18c-0.28,1.3 0.48,2.45 0.49,3.72c0.03,2.96 -0.46,5.86 -0.87,8.78c-0.33,2.37 -0.82,4.67 -1.58,6.91c-1.61,4.76 -3.76,9.3 -6.97,13.16c-2.6,3.12 -5.34,6.19 -8.8,8.47c-3.27,2.16 -6.54,4.26 -10.27,5.6c-3.4,1.22 -6.73,2.62 -10.39,2.81c-0.29,0.01 -0.42,0.19 -0.47,0.45c-3.83,0.58 -7.68,0.55 -11.53,0.43c-0.04,-0.29 -0.23,-0.39 -0.5,-0.4c-1.73,-0.05 -3.43,-0.17 -5.16,-0.4c-2.31,-0.31 -4.51,-0.92 -6.63,-1.71c-2.99,-1.11 -5.93,-2.34 -8.68,-4.05c-2.95,-1.84 -5.76,-3.84 -8.31,-6.17c-1.78,-1.62 -3.49,-3.31 -4.93,-5.29c-1.07,-1.48 -2.37,-2.81 -3.21,-4.46c-0.58,-1.16 -1.65,-2.03 -1.92,-3.36c0.26,0.09 0.53,0.16 0.78,0.27c3.4,1.5 6.81,2.96 10.46,3.76c3.38,0.75 6.82,1.08 10.27,1.24c2,0.09 3.96,-0.3 5.94,-0.43c4.4,-0.3 8.56,-1.49 12.67,-2.97c2.62,-0.95 5.14,-2.12 7.52,-3.58c2.56,-1.57 4.93,-3.36 7.2,-5.36c2.95,-2.6 5.38,-5.62 7.48,-8.86c1.21,-1.87 2.3,-3.87 3.2,-5.99c1.13,-2.65 2.03,-5.36 2.77,-8.1c0.73,-2.72 0.95,-5.59 1.05,-8.42c0.15,-4.38 -0.45,-8.6 -2.03,-12.77c-1.68,-4.43 -4.17,-8.3 -6.88,-12.1c-0.81,-1.14 -1.96,-2 -2.7,-3.14c-1.79,-2.78 -4.13,-5.11 -6.35,-7.48c-3.02,-3.21 -6.02,-6.44 -8.96,-9.73c-2.22,-2.49 -3.99,-5.35 -5.96,-8.03Z" style="fill:#615589;fill-rule:nonzero;"/>
  <path d="M87.44,248.24c0.84,1.65 2.13,2.98 3.21,4.46c1.44,1.98 3.16,3.67 4.93,5.29c2.55,2.33 5.36,4.33 8.31,6.17c2.75,1.71 5.69,2.95 8.68,4.05c2.12,0.78 4.32,1.4 6.63,1.71c1.73,0.23 3.43,0.35 5.16,0.4c0.27,0.01 0.46,0.11 0.5,0.4c-3.45,0.09 -6.86,-0.36 -10.27,-0.76c-6.19,-0.73 -12.25,-2.09 -18.17,-4.03c-7.46,-2.45 -14.51,-5.78 -21.1,-10.06c-6.76,-4.39 -12.78,-9.63 -18.05,-15.73c-1.73,-2 -3.43,-4.05 -4.82,-6.31c1.27,0.24 2.26,1.08 3.25,1.75c1.63,1.1 3.37,1.98 5.04,2.98c3.02,1.82 6.27,3.18 9.5,4.52c2.12,0.88 4.32,1.69 6.55,2.35c2.03,0.6 4.09,1.14 6.12,1.72c1.5,0.42 3.01,0.82 4.53,1.09Z" style="fill:#44375f;fill-rule:nonzero;"/>
  <path d="M122,153.2c1.96,2.68 3.74,5.54 5.94,8.01c2.93,3.28 5.94,6.51 8.96,9.73c2.22,2.37 4.55,4.7 6.35,7.48c0.73,1.14 1.89,2 2.7,3.14c2.71,3.8 5.2,7.67 6.88,12.1c1.59,4.17 2.19,8.39 2.03,12.77c-0.1,2.83 -0.32,5.7 -1.05,8.42c-0.73,2.74 -1.63,5.45 -2.77,8.1c-0.91,2.12 -1.99,4.11 -3.2,5.99c-2.1,3.24 -4.53,6.26 -7.48,8.86c-2.27,2 -4.64,3.8 -7.2,5.36c-2.38,1.45 -4.9,2.63 -7.52,3.58c-4.1,1.48 -8.26,2.68 -12.67,2.97c-1.98,0.13 -3.94,0.52 -5.94,0.43c-3.45,-0.16 -6.89,-0.5 -10.27,-1.24c-3.65,-0.8 -7.06,-2.26 -10.46,-3.76c-0.25,-0.11 -0.52,-0.18 -0.78,-0.27c-1.61,-2.31 -2.37,-5.01 -3.34,-7.6c-0.91,-2.45 -1.56,-5.02 -1.84,-7.59c-0.41,-3.77 -0.78,-7.55 -0.25,-11.4c0.38,-2.7 0.66,-5.43 1.14,-8.12c0.34,-1.89 0.95,-3.73 1.52,-5.57c0.72,-2.34 1.64,-4.6 2.57,-6.86c1.55,-3.75 3.48,-7.29 5.54,-10.76c1.45,-2.44 3.15,-4.73 4.79,-7.06c4.82,-6.81 10.51,-12.87 16.57,-18.56c3.11,-2.9 6.2,-5.83 9.78,-8.15Z" style="fill:#867ea3;fill-rule:nonzero;"/>
  <path d="M191.12,193.52c-0.01,0.31 -0.16,0.47 -0.47,0.48c-0.01,-0.32 0.16,-0.47 0.47,-0.48Z" style="fill:#fc9a35;fill-rule:nonzero;"/>
</svg>
