<?xml version="1.0" encoding="UTF-8" standalone="no"?><!DOCTYPE svg PUBLIC "-//W3C//DTD SVG 1.1//EN" "http://www.w3.org/Graphics/SVG/1.1/DTD/svg11.dtd"><svg width="100%" height="100%" viewBox="0 0 125 125" version="1.1" xmlns="http://www.w3.org/2000/svg" xmlns:xlink="http://www.w3.org/1999/xlink" xml:space="preserve" xmlns:serif="http://www.serif.com/" style="fill-rule:evenodd;clip-rule:evenodd;stroke-linecap:round;stroke-linejoin:round;stroke-miterlimit:1.5;"><g><path d="M44.426,61.984l5.605,7.557l-4.015,6.073l10.76,16.097c-9.67,-1.847 -17.69,-8.367 -21.608,-17.113l9.258,-12.614Z" style="fill:none;stroke:#fff;stroke-width:2px;"/><path d="M80.899,61.984l8.75,12.578c-3.825,8.568 -11.586,15.007 -20.98,17.019l10.115,-15.967l-3.519,-5.615l5.634,-8.015Z" style="fill:none;stroke:#fff;stroke-width:2px;"/><path d="M75.265,69.999l-5.07,-8.088l8.589,-13.558l-0.124,-0.198l-4.281,-6.829l-4.97,-7.93l0.076,0.018c8.874,2.161 16.196,8.294 19.97,16.399l-14.19,20.186Z" style="fill:none;stroke:#fff;stroke-width:2px;"/><path d="M35.364,49.767c3.887,-8.299 11.478,-14.513 20.637,-16.512l-9.985,15.098l9.062,13.558l-5.047,7.63l-14.667,-19.774Z" style="fill:none;stroke:#fff;stroke-width:2px;"/><path d="M70.198,104.466c4.739,-1.279 8.948,-3.72 12.353,-6.973l0.017,0.119c1.318,10.895 -6.649,20.833 -17.78,22.18c-11.132,1.346 -21.239,-6.406 -22.557,-17.301c-0.223,-1.849 -0.18,-3.671 0.108,-5.428c3.707,3.676 8.371,6.33 13.513,7.587l7.299,9.84l7.047,-10.024Zm-14.346,0.184l-7.996,-10.781c-11.875,-5.503 -20.119,-17.531 -20.119,-31.469c0,-13.542 7.783,-25.281 19.116,-30.984l8.093,-11.029c3.536,-0.988 7.317,-1.311 11.181,-0.844c1.701,0.206 3.35,0.557 4.936,1.039l7.91,11.372c10.774,5.882 18.09,17.316 18.09,30.446c0,13.517 -7.753,25.237 -19.051,30.952l-7.814,11.114c-1.318,0.356 -2.677,0.622 -4.071,0.791c-3.536,0.427 -7.002,0.193 -10.275,-0.607Zm-0.774,-42.739l-9.062,-13.558l9.985,-15.098c-9.123,1.991 -16.691,8.165 -20.591,16.414l-0.046,0.098c-1.8,3.832 -2.806,8.116 -2.806,12.633c0,4.343 0.93,8.471 2.61,12.198l0.047,0.102c3.934,8.695 11.929,15.171 21.561,17.011l-10.76,-16.097l4.015,-6.073l5.047,-7.63Zm23.706,13.703l-10.115,15.967c9.394,-2.012 17.155,-8.451 20.98,-17.019c1.669,-3.719 2.593,-7.834 2.593,-12.162c0,-4.459 -0.981,-8.692 -2.745,-12.497l-0.042,-0.09c-3.774,-8.105 -11.096,-14.238 -19.97,-16.399l-0.076,-0.018l9.375,14.957l-8.589,13.558l8.589,13.703Zm-16.406,-11.618l-8.466,11.53l8.466,11.704l8.875,-11.704l-8.875,-11.53Zm0,-27.385l-8.466,11.531l8.466,11.703l8.875,-11.703l-8.875,-11.531Zm-7.432,-16.224c-4.783,1.337 -9.119,3.891 -12.607,7.35c-0.288,-1.757 -0.331,-3.579 -0.108,-5.428c1.318,-10.895 11.425,-18.647 22.557,-17.301c11.131,1.347 19.098,11.285 17.78,22.18l-0.017,0.119c-3.197,-3.054 -7.101,-5.392 -11.488,-6.725l-7.912,-11.375l-8.205,11.18Z" style="fill:#f9f9f9;stroke:#fff;stroke-width:2px;"/></g></svg>