<?xml version="1.0" encoding="UTF-8" standalone="no"?><!DOCTYPE svg PUBLIC "-//W3C//DTD SVG 1.1//EN" "http://www.w3.org/Graphics/SVG/1.1/DTD/svg11.dtd">
<svg width="100%" height="100%" viewBox="0 0 503 662" version="1.1" xmlns="http://www.w3.org/2000/svg" xmlns:xlink="http://www.w3.org/1999/xlink" xml:space="preserve" xmlns:serif="http://www.serif.com/" style="fill-rule:evenodd;clip-rule:evenodd;stroke-linejoin:round;stroke-miterlimit:2;">
  <animateTransform
    attributeName="transform" attributeType="XML" dur="3s" keyTimes="0;0.5;1" repeatCount="indefinite" type="scale" values="1;0.98;1" calcMode="linear"
  />
  <path d="M97.55,315.74c-3.7,-3.16 -8.47,-4.5 -12.66,-6.84c-7.41,-4.14 -14.57,-8.55 -20.55,-14.54c-2.11,-2.12 -3.84,-4.49 -5.09,-7.16c-3.26,-6.94 0.15,-13.43 7.85,-15.03c8.07,-1.67 15.96,-0.17 23.78,1.48c13.5,2.85 26.53,7.18 39.45,11.86c11.56,4.19 22.9,8.87 34.18,13.7c1.8,0.77 3.61,1.54 5.62,1.66l0.04,-0.04c-0.41,-1.63 -1.37,-3 -2.28,-4.39c-5.83,-8.92 -12.39,-17.35 -20.11,-24.79c-12.02,-11.59 -25.6,-21 -42.12,-25.9c-1.16,-0.34 -3.1,-0.29 -2.95,-1.9c0.13,-1.39 2.01,-1.39 3.21,-1.74c4.34,-1.25 8.8,-1.33 13.29,-1.33c1.36,0 3.21,0.65 3.92,-0.9c0.6,-1.31 -0.93,-2.23 -1.74,-3.16c-5.66,-6.52 -12.04,-12.37 -18.56,-18.07c-2.6,-2.27 -5.34,-4.4 -7.42,-7.15c0.93,-1.15 1.82,-0.46 2.61,-0.23c4.6,1.29 8.59,3.76 12.66,6.1c1.05,0.6 1.95,1.78 3.63,1.18c0.02,-1.94 -1.59,-2.83 -2.67,-3.99c-12.49,-13.37 -26.04,-25.75 -39.18,-38.52c-1.07,-1.04 -2.53,-1.84 -2.9,-3.45c0.84,-1.15 1.93,-0.56 2.9,-0.44c11.23,1.42 21.51,5.66 31.75,10.02c3.49,1.49 6.93,3.07 10.42,4.55c1.05,0.44 2.22,1.1 3.3,0.09c0.88,-0.83 0.53,-1.89 0.32,-2.88c-0.24,-1.11 -0.5,-2.23 -0.82,-3.32c-5.95,-20.08 -11.63,-40.24 -21.03,-59.19c-0.62,-1.25 -1.14,-2.57 -1.5,-3.91c-0.25,-0.94 0.43,-1.43 1.4,-1.22c1.44,0.31 2.63,1.14 3.83,1.91c9.12,5.83 17.4,12.66 25.3,19.93c2.07,1.91 4.14,3.8 6.72,5.32c1.25,-1.4 0.83,-2.84 0.87,-4.16c0.12,-4.55 -0.18,-9.09 0.63,-13.63c0.9,-5.03 2.29,-9.88 4.8,-14.39c1.15,-2.06 1.59,-4.22 1.73,-6.54c0.83,-14.24 4.64,-27.69 11.98,-40.13c0.94,-1.59 1.75,-3.36 3.49,-4.31c1.29,0.69 0.85,1.64 0.76,2.47c-0.91,8.73 -0.72,17.43 0.48,26.12c0.09,0.63 0.2,1.26 0.38,1.86c0.63,2.08 1.22,2.42 3.02,1.29c17.19,-10.78 36.65,-14.14 56.55,-16.1c7.19,-0.71 14.39,-1.35 21.62,-1.45c-0.11,4.01 -0.27,8.03 -0.33,12.04c-0.13,8.41 -0.22,16.82 -0.32,25.23c-5.37,-0.03 -10.32,1.69 -15.28,3.39c-3.02,1.03 -4.55,2.98 -5.18,6.05c-3.58,17.33 -4.29,34.64 -0.05,51.95c3.59,14.66 10.03,27.62 23.25,36.73c5.44,3.75 9.23,9 11.83,14.93c6.57,14.99 4.35,29.38 -4.34,42.77c-7.59,11.7 -18.76,20.03 -30.78,27.29c-1.07,0.65 -2.33,1.56 -3.61,0.56c-1.08,-0.84 -0.59,-2.1 -0.4,-3.21c0.1,-0.62 0.27,-1.24 0.37,-1.86c0.2,-1.25 0.54,-2.5 0.53,-3.75c-0.01,-1.72 -1.11,-2.26 -2.6,-1.41c-0.45,0.25 -0.85,0.6 -1.22,0.95c-7.94,7.4 -15.27,15.33 -21.94,23.82c-1.82,1.99 -3.64,3.99 -5.46,5.98c-2.16,2.36 -2.9,2.43 -4.13,-0.3c-1.3,-2.88 -3.11,-4.24 -6.39,-3.52c-0.5,0.11 -1.05,0 -1.57,-0.01c-1.34,-1.07 -2.94,-1.64 -4.55,-2.21c-11.22,-3.98 -22.55,-7.68 -33.96,-11.11c-11.42,-3.43 -22.95,-6.49 -34.82,-8.18c-3.66,-0.52 -7.34,-0.57 -11,-0.18c-1.88,0.2 -3.66,0.89 -4.3,2.83c-0.62,1.89 0.77,3.06 1.99,4.22c1.42,1.35 3.16,2.25 4.92,3.11c11.43,5.6 23.62,9.15 35.93,12.38c3.69,0.97 7.4,1.73 11.25,1.67c1.17,1.69 3.15,1.71 4.9,2.09c12.32,2.66 24.73,4.9 37.25,6.58c18.12,2.44 36.3,4.04 54.62,4.11c6.45,0.02 12.88,-0.19 19.31,-0.67c10.25,-0.76 20.43,-1.95 30.33,-4.67c34.02,-9.33 64.36,-25.42 91.86,-46.66c3.89,-3.01 7.83,-5.98 11.19,-9.58c14.04,-11.92 25.73,-25.65 34.51,-41.61c0.61,-1.11 1.12,-2.3 1.55,-3.49c0.87,-2.46 0.44,-3.1 -2.35,-3.47c-1.43,-0.19 -2.88,-0.36 -4.32,-0.33c-11,0.24 -21.72,1.94 -32.04,5.7c-0.68,-2.54 -1.37,-5.09 -2.05,-7.63c1.76,-0.09 3.26,-0.91 4.81,-1.59c8.53,-3.75 17.35,-6.53 26.7,-7.72c3.8,-0.48 7.6,-0.48 11.4,-0.68c2.76,-0.14 3.69,-0.79 4.06,-3.24c0.64,-4.24 1.33,-8.49 0.89,-12.83c-1.19,-11.56 -6.39,-21.27 -14.63,-29.57c-11.1,-11.17 -24.81,-18.56 -39.24,-24.9c-9.22,-4.05 -18.87,-7 -28.41,-10.24c4.97,-1.54 10.1,-1.23 15.21,-1.36c1.67,-0.04 4.31,1.2 4.81,-0.94c0.45,-1.94 -2.18,-2.83 -3.79,-3.85c-0.44,-0.27 -0.93,-0.47 -1.41,-0.67c-4.24,-1.79 -8.7,-2.82 -13.27,-3.37c-3.9,-0.47 -7.83,-0.69 -11.74,-1.12c-3.65,-0.39 -4.06,-1.03 -2.31,-3.95c4.19,-6.99 8.49,-13.92 12.75,-20.88c1.77,1.17 3.83,1.65 5.84,2.26c16.35,4.94 32.19,11.04 47.38,18.72c14.54,7.35 28.01,16.11 39.41,27.55c12.59,12.62 21.21,27.28 23.95,44.84c1.34,8.59 1.13,17.14 -0.13,25.69c-0.44,2.95 0.14,5.04 3.11,6.59c18.54,9.71 28.41,25.38 32.73,44.72c3.14,14.06 3.89,28.25 2.82,42.63c-1.02,13.66 -2.67,27.2 -5.67,40.58c-4.22,18.81 -11.48,36.54 -20.93,53.47c-8.05,14.42 -17.36,28.03 -27.89,40.89c-6.43,7.86 -13.1,15.54 -20.7,22.37c-3.94,3.54 -6.23,7.7 -6.97,12.81c-1.87,12.92 -6.75,24.93 -12.27,36.74c-0.27,0.58 -0.56,1.15 -0.87,1.7c-1.62,2.84 -2.83,3.48 -6.08,2.77c-3.46,-0.75 -6.85,-1.78 -10.18,-2.99c-3.98,-1.45 -4.66,-1.09 -5.92,2.86c-2.67,8.34 -5.53,16.64 -7.88,25.07c-1.26,4.5 -4.01,6.3 -8.53,7.01c-11.9,1.89 -23.55,0.54 -35.25,-1.58c-16.07,-2.91 -28.45,-11.37 -38.76,-23.1c-1.19,-1.36 -2.27,-2.8 -4.1,-3.44c0.32,-1.72 -0.97,-2.78 -1.81,-4.01c-3.39,-4.91 -6.91,-9.75 -9.25,-15.25c0.22,-0.22 0.44,-0.45 0.66,-0.67c1.77,0.55 3.21,1.69 4.81,2.56c3.76,2.05 7.23,4.59 11.32,6.06c4.48,3.53 8.48,5.48 11.31,5.39c-0.81,-2.44 -1.89,-4.78 -2.33,-7.22c-0.55,-3.08 -2.23,-5.02 -5.08,-6.23c-9.25,-6.32 -16.95,-14.1 -23.53,-22.95c-1.12,-2.15 -2.36,-4.24 -4.1,-6c-1.69,-3.82 -3.43,-7.62 -5.05,-11.47c-0.5,-1.18 -1.37,-2.42 -0.53,-3.99c1.75,0.51 2.63,1.83 3.75,2.83c2.77,2.5 5.41,5.15 8.98,6.64c2.36,2.73 5.71,4.11 8.76,5.91c3.27,1.88 6.63,3.62 10.17,5c2.52,0.99 3.09,0.65 3.2,-1.88c0.1,-2.27 0,-4.55 -0.02,-6.82c0.57,-1.43 0.65,-2.95 0.84,-4.45c0.62,-5.03 1.7,-9.95 3.66,-14.67c0.46,-1.1 0.6,-2.45 1.88,-3.09c0.98,0.54 0.73,1.38 0.7,2.07c-0.47,10.44 2.54,20.2 6.19,29.84c1.46,3.85 2.47,4.52 6.43,3.67c7.17,-1.53 14.19,-3.55 20.82,-6.68c3.81,-1.1 4.22,-2.02 2.26,-5.05c-0.2,-0.31 -0.52,-0.54 -0.78,-0.8c-0.29,-2.15 -1.2,-4.13 -1.88,-6.17c-2.85,-8.48 -4.16,-17.2 -4.55,-26.07c-0.04,-0.92 -0.39,-2 0.64,-2.85c1.27,0.88 1.51,2.36 2.34,3.44c2.6,3.43 4.53,7.43 8.75,9.48c2.96,5.12 7.81,8.45 12.4,12.01c1.39,1.08 2.82,0.57 3.81,-0.64c2.66,-3.25 5.96,-6.11 6.69,-10.54c0.24,-1.48 0.95,-2.89 1.35,-4.36c2.62,-9.57 7.91,-17.41 16.65,-22.72c4.52,-2.75 6.71,-6.58 7.63,-11.38c0.33,-1.74 0.59,-3.5 0.95,-5.23c0.73,-3.52 -0.34,-6.49 -2.83,-9.07c-3.37,-3.49 -7.44,-5.94 -11.98,-7.81c-7.73,-3.18 -14.34,-1.04 -20.51,3.64c-2.22,0.15 -3.91,1.45 -5.67,2.51c-7.02,4.24 -13.79,8.84 -20.32,13.74c-2.49,1.87 -4.99,3.72 -7.5,5.56c-0.53,0.39 -1.19,0.69 -1.82,0.27c-0.63,-0.42 -0.58,-1.12 -0.34,-1.72c0.79,-2.01 1.59,-4.02 2.45,-6c6.66,-15.37 14.93,-29.84 25.71,-42.94c6.16,-7.49 13.41,-13.88 20.89,-20.08c2.68,-1.6 5.32,-3.25 8.03,-4.79c7.88,-4.47 16.19,-7.86 25.28,-9.26c1.45,-0.22 3.02,-0.86 4.28,0.35c-0.13,1.06 -0.8,1.53 -1.34,2.06c-8.86,8.65 -10,19.12 -7.48,30.31c1.75,7.77 7.54,12.51 14.28,16.36c3.78,2.16 3.97,2.16 7.06,-0.76c5.82,-5.49 11.22,-11.37 16.54,-17.31c11.38,-12.71 21.39,-26.32 28.41,-41.75c5.86,-12.89 9.44,-26.22 7.85,-40.53c-1.62,-14.54 -7.68,-26.93 -18.51,-37.17c-3.36,-3.17 -3.57,-3.18 -5.51,1.06c-6.6,14.37 -15.51,27.28 -26.69,38.7c-12.88,13.17 -27.66,24.06 -43.82,33.25c-1.36,0.77 -2.8,1.42 -3.82,2.64c-1.81,0.42 -3.41,1.32 -5.06,2.1c-5.19,2.46 -10.29,5.11 -15.59,7.33c-41.73,17.46 -85.29,24.91 -130.76,22.12c-16.94,-1.04 -33.77,-2.81 -50.5,-5.51c-26,-4.2 -51.47,-10.32 -75.86,-20.15c-1.22,-0.49 -2.44,-0.96 -3.79,-0.95c-0.57,-0.13 -1.07,-0.28 -1.57,-0.43Zm59.32,-47.95c-0.49,1.96 0.29,2.91 0.75,3.91c1.78,3.81 3.72,7.59 6.38,10.87c5.09,6.27 8.34,13.41 11.22,20.75c1.25,3.19 2.42,6.41 3.8,9.55c0.9,2.05 1.57,2.05 2.93,0.26c0.39,-0.51 0.71,-1.06 1.05,-1.6c7.24,-11.46 16.3,-21.37 27.43,-29.46c2.22,-1.61 2.95,-3.27 2.32,-5.79c-0.87,-3.46 -1.91,-6.83 -3.75,-9.93c-5.31,-8.93 -15.08,-11.39 -24.29,-6.11c-3.3,1.89 -6.11,4.35 -8.84,6.92c-1.78,1.68 -3.53,3.39 -5.59,4.78c-2.17,1.47 -4.28,1.64 -6.54,0.1c-2.11,-1.43 -4.35,-2.7 -6.87,-4.25Z" style="fill:#44375f;fill-rule:nonzero;"/><path d="M348.46,442.85c-4.22,-2.05 -6.15,-6.05 -8.75,-9.48c-0.83,-1.09 -1.07,-2.56 -2.34,-3.44c-1.03,0.86 -0.68,1.93 -0.64,2.85c0.38,8.87 1.69,17.6 4.55,26.07c0.69,2.04 1.59,4.02 1.88,6.17c-0.49,1.95 -0.98,3.9 -1.47,5.85c-6.63,3.12 -13.65,5.15 -20.82,6.68c-3.96,0.84 -4.97,0.18 -6.43,-3.67c-3.65,-9.64 -6.66,-19.4 -6.19,-29.84c0.03,-0.69 0.28,-1.54 -0.7,-2.07c-1.28,0.64 -1.42,1.99 -1.88,3.09c-1.96,4.71 -3.04,9.64 -3.66,14.67c-0.19,1.5 -0.27,3.02 -0.84,4.45c-3.01,-0.09 -5.98,0.17 -8.86,1.03c-1.73,0.51 -3.57,0.87 -4.49,2.67c-3.04,-1.8 -6.39,-3.18 -8.76,-5.91c0.47,-1.91 2,-2.86 3.61,-3.75c2.17,-1.19 4.1,-2.67 5.9,-4.34c1.98,-1.84 2.75,-4 2.01,-6.5c-1.88,-6.43 -4.11,-12.72 -8.31,-18.18c-1.19,-3.9 -1.19,-3.9 2.61,-4.85c0.25,-0.06 0.53,-0.09 0.76,-0.2c1.57,-0.71 4.29,-0.41 4.28,-2.6c-0.02,-2.11 -2.6,-2.21 -4.28,-2.65c-5.97,-1.55 -12.08,-2.47 -18.19,-3.4c-3.88,-0.59 -7.89,-0.54 -11.62,-1.96c-6.49,-2.47 -13.09,-2.3 -19.76,-0.76c-6.45,1.49 -12.43,4.09 -18.12,7.31c-3.42,1.93 -6.93,3.62 -10.74,4.71c-8.44,2.43 -16.88,4.85 -25.32,7.26c-0.88,0.25 -1.78,0.48 -2.69,0.57c-1.71,0.17 -2.27,-0.57 -1.36,-1.97c1.34,-2.06 2.43,-4.2 3.16,-6.51c0.82,-2.6 2.34,-4.39 5.22,-5.15c3.44,-0.91 5.91,-3.28 8,-5.92c2.04,-2.57 1.21,-5.16 -1.9,-6.42c-1.2,-0.48 -2.5,-0.78 -3.79,-1.01c-6.66,-1.23 -13.32,-0.62 -20.02,-0.13c-11.24,0.82 -22.09,3.14 -32.67,6.75c-2.59,0.88 -5.26,1.65 -7.52,3.26c-8.32,3.08 -15.6,7.75 -22.22,13.43c-1.66,1.43 -3.15,3.04 -4.77,4.52c-2.37,2.17 -2.96,2.09 -4.01,-0.77c-0.91,-2.5 -1.68,-5.05 -2.39,-7.62c-1.34,-4.88 -0.48,-9.26 3.36,-12.92c1.7,-1.62 2.99,-3.52 3.89,-5.66c2.34,-5.6 0.15,-10.16 -5.81,-11.89c-1.75,-0.51 -3.59,-0.71 -5.39,-1.06c-0.85,-0.17 -1.9,0.14 -2.49,-1.04c0.34,-1.18 1.44,-1.96 2.22,-2.94c2.4,-3.02 4.68,-6.1 5.91,-9.78c2.21,-6.59 0.43,-11.37 -5.77,-14.8c-5.46,-3.03 -11.48,-4.46 -17.73,-4.46c-8.7,0 -13.58,4.15 -15.28,12.41c-0.52,2.5 -0.55,5.01 -0.48,7.55c0.07,2.62 -0.53,3.2 -3.22,2.95c-7.53,-0.68 -14.78,-2.29 -21.16,-6.5c-1.63,-1.07 -3.26,-2.15 -5.3,-2.4c-1.53,-2.35 -3.24,-4.57 -5.01,-6.76c-4.06,-5.06 -6.8,-10.76 -8.37,-16.97c-1.23,-4.88 -0.51,-9.01 4.51,-11.69c1.94,-1.04 3.27,-2.57 2.89,-4.92c-0.37,-2.3 -2.12,-3.39 -4.15,-4.13c-2.74,-0.99 -5.62,-1.2 -8.52,-1.17c-1.31,0.01 -2.63,0.08 -3.93,-0.01c-1.85,-0.14 -2.26,-1.04 -1.11,-2.47c1.41,-1.75 3.41,-2.72 5.5,-3.53c4.9,-1.91 10.07,-2.81 15.27,-3.48c6.88,-0.9 13.8,-1.52 20.75,-1.74c0.48,-0.02 0.97,-0.04 1.45,-0.06c5.83,-0.3 11.64,-0.91 17.49,-0.71c0.75,0.33 1.5,0.32 2.24,-0.04c9.78,-0.23 19.55,-0.91 29.34,-0.71c1,0.46 2,0.44 3.01,0.04c1.35,-0.01 2.57,0.46 3.79,0.95c24.39,9.83 49.85,15.95 75.86,20.15c16.73,2.7 33.56,4.48 50.5,5.51c45.47,2.79 89.02,-4.65 130.76,-22.12c5.3,-2.22 10.4,-4.87 15.59,-7.33c1.65,-0.78 3.25,-1.68 5.05,-2.1c-1.52,8.94 -3.04,17.89 -4.56,26.83c-7.48,6.19 -14.73,12.59 -20.89,20.08c-10.78,13.11 -19.05,27.57 -25.71,42.94c-0.86,1.98 -1.67,3.99 -2.45,6c-0.24,0.6 -0.28,1.31 0.34,1.72c0.62,0.42 1.29,0.11 1.82,-0.27c2.51,-1.84 5.01,-3.69 7.5,-5.56c6.54,-4.91 13.3,-9.5 20.32,-13.74c1.76,-1.06 3.45,-2.37 5.67,-2.51c-5.01,18.62 -9.66,37.34 -14.17,56.1Z" style="fill:#1e1a2e;fill-rule:nonzero;"/><path d="M346.83,88.11c-4.26,6.95 -8.56,13.88 -12.75,20.88c-1.75,2.93 -1.34,3.56 2.31,3.95c3.91,0.42 7.84,0.65 11.74,1.12c4.57,0.55 9.03,1.58 13.27,3.37c0.48,0.2 0.97,0.4 1.41,0.67c1.62,1.02 4.25,1.91 3.79,3.85c-0.5,2.14 -3.14,0.89 -4.81,0.94c-5.11,0.14 -10.24,-0.18 -15.2,1.36c-11.55,2.3 -19.17,8.59 -21.82,19.92c-6.2,-0.55 -11.54,1.8 -16.73,4.63c-1.35,-0.08 -2.57,0.27 -3.65,1.06c-11.16,4.64 -20.5,11.72 -28.71,20.19c-3.01,3.1 -6.38,4.2 -10.58,3.5c-1.55,-0.26 -3.1,-0.5 -4.66,-0.76c-2.6,-0.43 -5.21,-0.52 -7.84,-0.34c-1.8,0.13 -3.32,0.69 -4.15,2.37c-2.23,-0.34 -3.41,-1.83 -4.11,-3.68c-0.67,-1.78 -1.3,-3.6 -1.62,-5.45c-2.57,-14.6 -4.02,-29.32 -4.61,-44.11c0.25,-0.51 0.24,-1.01 -0.04,-1.51c-0.08,-2.78 -0.17,-5.56 -0.25,-8.34c0.1,-8.41 0.19,-16.82 0.32,-25.23c0.06,-4.01 0.22,-8.03 0.33,-12.04c0.48,-8.1 0.97,-16.19 1.45,-24.29c0.28,-0.06 0.56,-0.11 0.84,-0.17c3.97,8.24 7.94,16.48 11.91,24.72c2.2,5.68 4.99,11.12 7.61,16.62c0.16,0.34 0.44,0.61 1.26,0.52c0.06,-5.84 1.7,-11.54 2.58,-17.35c2.21,-5.23 3.81,-10.69 6.37,-15.78c0.66,-1.31 1.36,-2.61 2.3,-3.83c-0.49,6.79 -1.85,13.45 -1.14,20.23c-0.18,5.61 0.38,8.38 2.31,10.67c1.53,-3.56 3.01,-6.99 4.48,-10.42c8.29,-14.57 18.45,-27.87 29.64,-40.47c1,-1.13 1.8,-2.51 3.39,-3.09c1.32,0.74 0.9,2.02 0.94,3.05c0.35,8.08 -0.02,16.15 -0.58,24.22c-0.29,4.15 -0.73,8.3 -1.04,12.45c-0.08,1.08 -0.48,2.23 0.46,3.65c4.54,-5.6 9.22,-10.91 15.17,-14.9c0.29,0.15 0.58,0.3 0.87,0.45c-1.32,4.83 -2.64,9.66 -3.95,14.49c-0.22,0.3 -0.37,0.64 -0.05,0.91c0.35,0.3 0.63,0.04 0.86,-0.25c2.11,-2.11 4.5,-3.89 7.04,-5.48c10.09,-6.32 20.98,-11.04 32.33,-14.8c0.95,-0.31 1.93,-0.87 3.55,-0.25c-6.76,11 -13.94,21.63 -20.24,32.75Z" style="fill:#111112;fill-rule:nonzero;"/><path d="M178.05,520.32c-0.02,2.22 0.69,4.28 1.89,6.11c2.25,3.43 3.17,7.25 3.48,11.16c0.25,3.13 1.03,6.01 2.83,8.56c2.61,3.69 3.18,7.62 2.34,11.94c-0.55,2.84 -0.91,5.72 -0.32,8.66c0.55,2.73 -0.39,5.23 -1.93,7.56c-2.36,3.55 -5.31,6.62 -8.57,9.38c-3.75,3.18 -7.68,6.15 -11.51,9.24c-1.38,1.11 -2.9,1.82 -4.71,1.31c-2.26,-0.63 -3.72,0.51 -5.23,1.84c-5.25,4.6 -10.56,9.17 -15.27,14.28c-3.93,4.25 -8.76,6.36 -14.44,6.93c-7,0.7 -13.91,0.2 -20.71,-1.64c-3.41,-0.92 -5.34,-2.61 -6.34,-6.29c-2.09,-7.72 -0.49,-14.51 3.7,-21.02c3.01,-4.68 6.87,-8.65 11.58,-11.77c3.93,-2.61 7.43,-5.59 10.35,-9.26c2.16,-2.72 4.87,-4.96 7.5,-7.26c2.92,-2.55 5.82,-5.13 8.14,-8.24c2.12,-2.84 3.55,-5.91 3.37,-9.51c-0.06,-1.14 0.11,-2.26 0.5,-3.36c4.03,-11.13 3.88,-22.61 2.97,-34.13c-0.27,-3.4 -0.79,-6.79 -1.19,-10.18c-0.28,-2.51 -0.44,-5.04 -0.85,-7.53c-0.88,-5.36 -0.95,-10.82 -2.24,-16.12c-0.09,-2.27 -0.06,-4.55 -0.31,-6.81c-0.77,-6.99 1.39,-11.78 7.96,-14.53c10.3,-4.32 21.01,-4.68 31.26,0.07c6.83,3.16 11.3,8.66 12.2,16.17c0.5,4.14 0.3,8.33 -0.96,12.4c-1.27,4.11 -2.5,8.24 -3.75,12.36c-3.11,6.11 -5.55,12.52 -9.06,18.45c-2.07,3.47 -3.08,7.2 -2.68,11.23Z" style="fill:#2a2a2a;fill-rule:nonzero;"/><path d="M143.37,470.97c1.29,5.3 1.36,10.76 2.24,16.12c0.41,2.49 0.58,5.02 0.85,7.53c-13.4,3.47 -26.52,2.98 -39.28,-2.56c-1.79,-0.78 -3.64,-1.54 -4.97,-3c-1.15,-1.27 -0.9,-2.17 0.7,-2.93c0.12,-0.06 0.25,-0.07 0.37,-0.12c5.87,-2.51 6.93,-5.32 3.58,-10.61c-4.08,-6.44 -9.33,-11.63 -17.46,-13.16c-4.61,-0.87 -9.16,-0.35 -13.66,0.77c-3.83,0.95 -7.47,2.42 -11.15,3.77c-1.41,0.51 -2.8,1.51 -4.56,0.7c-0.1,-1.76 1.25,-2.72 2.31,-3.75c4.45,-4.3 8.98,-8.53 13.44,-12.82c1.58,-1.52 3.06,-3.13 4.53,-4.75c0.96,-1.06 1.8,-2.25 1.61,-3.75c-0.31,-2.44 1.15,-3.74 3.1,-4.78c0.11,-0.06 0.23,-0.13 0.34,-0.18c5.27,-2.63 6.18,-2.77 0.71,-7.78c-5.6,-5.13 -11.82,-8.8 -19.79,-9.14c-2.91,-0.12 -5.79,0.07 -8.62,0.69c-1.96,0.43 -3.92,0.57 -5.87,0.26c-8.43,-1.35 -16.18,-4.3 -23.09,-9.21c-2.16,-1.54 -3.43,-3.11 -2.6,-6.06c0.93,-3.27 -0.37,-4.45 -3.88,-4.34c-2.79,0.09 -5.44,0.91 -8.05,1.75c-3.87,1.23 -7.69,2.59 -11.54,3.87c-0.72,0.24 -1.59,0.65 -2.17,-0.1c-0.54,-0.7 -0.04,-1.44 0.31,-2.12c0.23,-0.45 0.5,-0.89 0.79,-1.31c3.57,-5.19 7.68,-9.96 12.46,-14.15c3.94,-3.46 6.12,-3.11 9.45,-0.93c3.39,2.22 6.12,0.95 6.97,-3.03c0.38,-1.76 0.17,-3.55 -0.42,-5.25c-0.71,-2.03 -1.57,-4.02 -2.36,-6.03c2.03,0.25 3.67,1.32 5.3,2.4c6.38,4.21 13.63,5.82 21.16,6.5c2.7,0.24 3.29,-0.33 3.22,-2.95c-0.06,-2.54 -0.03,-5.04 0.48,-7.55c1.7,-8.26 6.57,-12.41 15.28,-12.41c6.25,0 12.27,1.43 17.73,4.46c6.19,3.43 7.98,8.21 5.77,14.8c-1.23,3.68 -3.51,6.76 -5.91,9.78c-0.78,0.98 -1.88,1.75 -2.22,2.94c0.58,1.18 1.63,0.88 2.49,1.04c1.8,0.35 3.64,0.55 5.39,1.06c5.95,1.73 8.15,6.3 5.81,11.89c-0.89,2.14 -2.19,4.03 -3.89,5.66c-3.84,3.66 -4.7,8.04 -3.36,12.92c0.71,2.56 1.48,5.12 2.39,7.62c1.05,2.86 1.64,2.94 4.01,0.77c1.62,-1.48 3.11,-3.09 4.77,-4.52c6.61,-5.68 13.9,-10.35 22.22,-13.43c-0.53,6.02 -1.36,12.02 -1.49,18.05c-0.15,6.69 -0.05,13.33 -2.66,19.71c-1.29,3.16 -0.2,5.87 2.46,8.11c4.99,4.17 10.44,7.55 16.76,9.55Z" style="fill:#100e12;fill-rule:nonzero;"/><path d="M222.91,605.56c-4.03,-7.49 -5.36,-15.48 -4.62,-23.82c0.22,-2.47 1.41,-4.58 2.96,-6.5c3.3,-4.08 6.57,-8.19 9.99,-12.18c2.02,-2.35 3.02,-4.87 2.97,-7.96c-0.08,-5.07 0.54,-10.06 2.33,-14.89c0.52,-1.41 1.07,-2.9 -0.01,-4.34c0.64,-0.64 1.27,-1.31 1.35,-2.24c0.48,-5.09 0.55,-10.08 -3.23,-14.31c-1.8,-2.01 -3.69,-3.91 -5.83,-5.58c-7.19,-5.64 -14.39,-11.28 -21.58,-16.92c-0.49,-0.59 -0.92,-1.25 -1.48,-1.77c-4.24,-3.92 -4.43,-8.3 -1.83,-13.12c1.82,-3.37 3.9,-6.57 6.11,-9.72c7.13,-10.2 19.88,-10.98 29.55,-7.3c3.94,1.5 6.52,4.2 7.87,7.98c0.94,2.63 1.67,5.32 2.5,7.99c0.77,8.94 4.93,16.61 9.81,24c0.92,1.39 2.09,2.63 3.56,3.48c5.72,3.31 11.14,7.05 16.68,10.61c1.44,2.11 3.9,3.44 4.86,5.92c-5.72,-0.45 -10.18,1.84 -13.82,5.9c-0.77,0.86 -1.53,1.73 -2.29,2.6c-4.79,5.44 -8.06,11.8 -11.66,17.96c-5.34,9.14 -11.02,18.06 -17.71,26.38c-4.98,6.2 -9.35,12.8 -13.06,19.81c-1.38,2.59 -1.7,5.58 -3.42,8.02Z" style="fill:#272828;fill-rule:nonzero;"/><path d="M280,518.97c-5.54,-3.57 -10.96,-7.31 -16.68,-10.61c-1.47,-0.85 -2.64,-2.09 -3.56,-3.48c-4.88,-7.39 -9.04,-15.05 -9.81,-24c4.88,-2.84 8.62,-6.96 10.42,-11.93c2.63,-7.25 1.67,-8.69 -3.82,-12.73c-1.66,-1.22 -3.2,-2.62 -4.72,-4.02c-1.45,-1.34 -1.47,-2.04 0.37,-2.79c3.18,-1.31 4.21,-3.55 4,-6.63c-0.18,-2.64 1.12,-4.3 3.71,-5.11c7.62,-2.4 14.89,-5.67 22.35,-8.47c4.2,5.45 6.42,11.75 8.31,18.18c0.73,2.51 -0.03,4.66 -2.01,6.5c-1.8,1.67 -3.73,3.15 -5.9,4.34c-1.61,0.89 -3.14,1.84 -3.61,3.75c-3.57,-1.49 -6.21,-4.15 -8.98,-6.64c-1.11,-1 -2,-2.32 -3.75,-2.83c-0.84,1.58 0.03,2.82 0.53,3.99c1.62,3.85 3.36,7.65 5.06,11.47c-3.81,2.56 -4.97,6.65 -6.5,10.51c-0.27,0.68 -0.52,1.54 0.35,2.02c0.66,0.36 1.26,-0.1 1.76,-0.5c0.71,-0.56 1.36,-1.19 2.05,-1.76c1.98,-1.65 3.91,-3.37 6.43,-4.27c6.58,8.84 14.28,16.63 23.53,22.95c-0.82,2.91 -3.59,4.94 -3.91,8.06c-4.09,-1.47 -7.56,-4.01 -11.32,-6.06c-1.59,-0.87 -3.03,-2 -4.81,-2.55c-0.23,-0.08 -0.53,-0.3 -0.66,-0.23c-0.43,0.25 -0.24,0.59 0,0.89c2.34,5.5 5.87,10.34 9.25,15.25c0.85,1.23 2.13,2.29 1.81,4.01c-3.38,0.53 -6.66,1.51 -9.89,2.69Z" style="fill:#100e12;fill-rule:nonzero;"/><path d="M222.91,605.56c1.73,-2.44 2.04,-5.44 3.42,-8.04c3.71,-7 8.08,-13.61 13.06,-19.81c6.69,-8.32 12.37,-17.24 17.71,-26.38c3.6,-6.16 6.87,-12.52 11.66,-17.96c0.76,-0.87 1.52,-1.74 2.29,-2.6c3.64,-4.06 8.1,-6.35 13.82,-5.9c3.89,3.4 4.03,8.02 4.25,12.54c0.12,2.41 -0.58,4.78 -1.46,7.03c-3.6,9.14 -8.89,17.18 -16.83,23.42c-1.31,1.03 -2.04,2.26 -2.57,3.71c-3.15,8.62 -7.38,16.76 -12.04,24.7c-2.47,4.21 -5.34,8.14 -9.15,11.33c-4.15,3.47 -8.9,5.41 -14.49,4.65c-4.39,-0.59 -8.08,-2.28 -9.67,-6.69Z" style="fill:#2f2e2f;fill-rule:nonzero;"/><path d="M207.24,496.83c7.19,5.64 14.39,11.28 21.58,16.92c2.14,1.67 4.03,3.57 5.83,5.58c3.78,4.22 3.71,9.22 3.23,14.31c-0.09,0.93 -0.71,1.6 -1.35,2.24c-6.16,2.91 -12.52,5.27 -19.37,6.19c-2.26,0.3 -4.47,0.22 -6.6,-0.58c-1.07,-0.4 -1.41,-1.1 -0.56,-2.04c0.52,-0.57 1.1,-1.09 1.58,-1.69c2.51,-3.12 2.24,-5.65 -0.95,-8.23c-2.25,-1.81 -4.9,-2.95 -7.63,-3.89c-8.08,-2.8 -16.44,-4.4 -24.96,-5.33c-0.39,-4.03 0.61,-7.76 2.67,-11.25c3.5,-5.93 5.94,-12.34 9.06,-18.45c0.71,0.73 1.49,1.41 2.1,2.21c2.18,2.85 5.06,4.16 8.74,4c2.21,-0.08 4.42,0 6.63,0.01Z" style="fill:#100e12;fill-rule:nonzero;"/><path d="M264.12,74.52c-0.88,5.81 -2.52,11.51 -2.58,17.35c-0.82,0.09 -1.1,-0.18 -1.26,-0.52c-2.63,-5.5 -5.42,-10.93 -7.61,-16.62c3.8,-0.42 7.62,-0.14 11.45,-0.21Z" style="fill:#44375f;fill-rule:nonzero;"/><path d="M278.44,75.38c-1.48,3.43 -2.95,6.86 -4.48,10.42c-1.93,-2.29 -2.49,-5.06 -2.31,-10.67c2.26,0.09 4.53,0.17 6.79,0.25Z" style="fill:#44375f;fill-rule:nonzero;"/><path d="M99.04,316.19c-1.01,0.4 -2.01,0.42 -3.01,-0.04c0.5,-0.14 1,-0.28 1.51,-0.41c0.51,0.15 1.01,0.3 1.5,0.45Z" style="fill:#2f2e2f;fill-rule:nonzero;"/><path d="M66.69,316.86c-0.74,0.36 -1.49,0.38 -2.24,0.04c0.74,-0.29 1.49,-0.3 2.24,-0.04Z" style="fill:#2f2e2f;fill-rule:nonzero;"/><path d="M46.96,317.61c-0.48,0.02 -0.97,0.04 -1.45,0.06c0.48,-0.02 0.97,-0.04 1.45,-0.06Z" style="fill:#2f2e2f;fill-rule:nonzero;"/><path d="M385.72,265.84c-3.35,3.6 -7.3,6.57 -11.19,9.58c-27.49,21.24 -57.83,37.33 -91.86,46.66c-9.9,2.72 -20.08,3.91 -30.33,4.67c-6.43,0.48 -12.86,0.69 -19.31,0.67c-18.31,-0.07 -36.5,-1.67 -54.62,-4.11c-12.51,-1.68 -24.92,-3.92 -37.25,-6.58c-1.75,-0.38 -3.73,-0.4 -4.9,-2.09c11.55,-0.37 23.06,-1.26 34.53,-2.53c0.53,0.01 1.08,0.12 1.57,0.01c3.28,-0.73 5.09,0.64 6.39,3.52c1.23,2.73 1.97,2.66 4.13,0.3c1.82,-1.99 3.64,-3.99 5.46,-5.98c5.54,-0.22 10.94,-1.35 16.36,-2.29c13.87,-2.39 27.44,-5.73 40.59,-10.75c7.04,-2.68 12.33,-6.88 16.46,-12.9c6.09,-8.89 11.5,-18.12 16.47,-27.62c2.78,-5.29 4.86,-10.46 3.16,-16.65c-1.31,-4.75 0.87,-8.65 5.29,-11.26c0.67,-0.4 1.3,-0.85 1.93,-1.31c2.56,-1.88 4.01,-4.33 4.02,-7.46c0.01,-2.78 -0.05,-5.56 -0.12,-8.34c-0.16,-6.07 -0.91,-12.11 -0.69,-18.19c0.32,-9.16 3.07,-17.4 9.72,-24.2c0.59,0.31 1.24,0.54 1.89,0.35c4.62,-1.41 9.41,-2.47 13.29,-5.51c3.29,-2.58 6.98,-4.48 10.86,-6.06c4.19,-1.71 4.19,-1.72 2.67,-6.04c1.03,-0.17 2.06,-0.43 3.1,-0.51c4.63,-0.37 5.05,-0.15 6.53,4.05c1.44,4.1 3.84,7.32 7.66,9.75c7.22,4.58 12.93,10.66 17.77,17.52c7.07,10.02 12.31,20.85 15.7,32.51c0.68,2.54 1.37,5.09 2.05,7.63c1.63,10.06 2.92,20.15 2.72,30.37c-0.07,4.25 -0.03,8.52 -0.05,12.79Z" style="fill:#1e1a2e;fill-rule:nonzero;"/><path d="M156.87,267.79c2.52,1.55 4.76,2.82 6.87,4.25c2.26,1.53 4.37,1.37 6.54,-0.1c2.05,-1.39 3.81,-3.1 5.59,-4.78c2.73,-2.57 5.54,-5.03 8.84,-6.92c9.21,-5.28 18.98,-2.82 24.29,6.11c1.84,3.1 2.89,6.48 3.75,9.93c0.64,2.53 -0.1,4.18 -2.32,5.79c-11.13,8.09 -20.18,18 -27.43,29.46c-0.34,0.54 -0.66,1.09 -1.05,1.6c-1.37,1.79 -2.04,1.79 -2.93,-0.26c-1.37,-3.14 -2.55,-6.36 -3.8,-9.55c-2.88,-7.35 -6.14,-14.48 -11.22,-20.75c-2.66,-3.28 -4.6,-7.06 -6.38,-10.87c-0.46,-1 -1.23,-1.95 -0.75,-3.91Z" style="fill:#0b0c0c;fill-rule:nonzero;"/><path d="M295.64,504.96c0.32,-3.13 3.09,-5.16 3.91,-8.06c2.85,1.2 4.52,3.15 5.08,6.23c0.44,2.45 1.52,4.78 2.33,7.22c-2.84,0.09 -6.83,-1.86 -11.32,-5.39Z" style="fill:#1e1a2e;fill-rule:nonzero;"/><path d="M287.82,467.87c0.91,-1.8 2.75,-2.16 4.49,-2.67c2.89,-0.86 5.86,-1.12 8.86,-1.03c0.01,2.27 0.12,4.55 0.02,6.82c-0.11,2.53 -0.68,2.87 -3.2,1.88c-3.53,-1.38 -6.89,-3.12 -10.17,-5Z" style="fill:#100e12;fill-rule:nonzero;"/><path d="M276.02,473.95c-2.52,0.9 -4.45,2.62 -6.43,4.27c-0.69,0.58 -1.34,1.2 -2.05,1.76c-0.5,0.4 -1.11,0.86 -1.76,0.5c-0.87,-0.48 -0.62,-1.34 -0.35,-2.02c1.53,-3.86 2.69,-7.95 6.5,-10.51c1.74,1.76 2.97,3.85 4.09,6Z" style="fill:#1e1a2e;fill-rule:nonzero;"/><path d="M341.69,470.87c0.49,-1.95 0.98,-3.9 1.47,-5.85c0.26,0.27 0.59,0.5 0.78,0.8c1.97,3.03 1.55,3.95 -2.25,5.05Z" style="fill:#5f5967;fill-rule:nonzero;"/><path d="M170.18,300.83l-0.04,0.04c-0.01,0 0.04,-0.04 0.04,-0.04Z" style="fill:#5f5967;fill-rule:nonzero;"/><path d="M207.24,496.83c-2.21,-0.01 -4.42,-0.09 -6.62,0c-3.68,0.16 -6.56,-1.15 -8.74,-4c-0.61,-0.8 -1.4,-1.47 -2.1,-2.21c1.25,-4.12 2.47,-8.25 3.74,-12.36c1.26,-4.07 1.46,-8.26 0.96,-12.4c-0.9,-7.51 -5.38,-13.01 -12.2,-16.17c-10.25,-4.74 -20.95,-4.39 -31.26,-0.07c-6.57,2.76 -8.73,7.55 -7.96,14.53c0.25,2.25 0.21,4.54 0.31,6.81c-6.32,-2 -11.77,-5.38 -16.75,-9.57c-2.66,-2.24 -3.75,-4.94 -2.46,-8.11c2.61,-6.39 2.52,-13.02 2.66,-19.71c0.13,-6.02 0.97,-12.03 1.49,-18.05c2.26,-1.61 4.93,-2.38 7.52,-3.26c10.58,-3.61 21.43,-5.93 32.67,-6.75c6.7,-0.49 13.36,-1.09 20.02,0.13c1.29,0.24 2.59,0.53 3.79,1.01c3.11,1.25 3.93,3.85 1.9,6.42c-2.09,2.63 -4.56,5 -8,5.92c-2.88,0.76 -4.4,2.55 -5.22,5.15c-0.73,2.31 -1.82,4.45 -3.16,6.51c-0.91,1.4 -0.34,2.14 1.36,1.97c0.91,-0.09 1.81,-0.32 2.69,-0.57c8.44,-2.41 16.88,-4.84 25.32,-7.26c3.81,-1.09 7.32,-2.78 10.74,-4.71c5.69,-3.22 11.67,-5.82 18.12,-7.31c6.66,-1.54 13.27,-1.72 19.76,0.76c3.73,1.42 7.74,1.37 11.62,1.96c6.11,0.92 12.21,1.84 18.19,3.4c1.68,0.44 4.27,0.54 4.28,2.65c0.02,2.19 -2.7,1.9 -4.28,2.6c-0.23,0.11 -0.51,0.14 -0.76,0.2c-3.8,0.95 -3.8,0.95 -2.61,4.85c-7.46,2.81 -14.73,6.07 -22.35,8.47c-2.59,0.82 -3.89,2.47 -3.71,5.11c0.21,3.08 -0.82,5.33 -4,6.63c-1.84,0.76 -1.82,1.46 -0.37,2.79c1.52,1.4 3.05,2.79 4.72,4.02c5.49,4.04 6.45,5.48 3.82,12.73c-1.8,4.97 -5.54,9.09 -10.42,11.93c-0.82,-2.66 -1.56,-5.36 -2.5,-7.99c-1.35,-3.78 -3.92,-6.48 -7.87,-7.98c-9.67,-3.68 -22.42,-2.9 -29.55,7.3c-2.2,3.15 -4.28,6.35 -6.11,9.72c-2.61,4.82 -2.41,9.21 1.83,13.12c0.57,0.54 1,1.2 1.49,1.79Z" style="fill:#161418;fill-rule:nonzero;"/><path d="M299.82,165.8c-6.66,3.39 -12.75,7.51 -17.86,12.89c-2.86,3.01 -5.19,6.36 -6.54,10.25c-0.9,2.59 -0.65,3.26 1.78,4.68c1.66,0.97 3.42,1.78 5.4,2.8c-3.59,3 -7.74,3.58 -11.88,3.96c-3.39,0.32 -6.81,0 -10.21,-0.32c-2.62,-0.25 -4.32,-1.5 -5.61,-3.61c-3.79,-6.23 -5.62,-13.01 -6.34,-20.12c-0.05,-0.5 -0.09,-1 -0.14,-1.5c0.83,-1.68 2.35,-2.25 4.15,-2.37c2.63,-0.18 5.24,-0.1 7.84,0.34c1.55,0.26 3.1,0.5 4.66,0.76c4.2,0.71 7.57,-0.39 10.58,-3.5c8.22,-8.47 17.56,-15.55 28.71,-20.19c0.77,0.1 1.54,0.2 2.3,0.3c-5.72,3.81 -8.05,9 -6.84,15.63Z" style="fill:#edcc8d;fill-rule:nonzero;"/><path d="M299.82,165.8c-1.22,-6.63 1.12,-11.82 6.84,-15.62c0.44,-0.45 0.9,-0.92 1.36,-1.38c5.19,-2.82 10.53,-5.18 16.73,-4.63c1.83,2.51 3.66,5.01 5.5,7.52c1.52,4.32 1.52,4.33 -2.67,6.04c-3.88,1.59 -7.57,3.48 -10.86,6.06c-3.87,3.04 -8.67,4.1 -13.29,5.51c-0.64,0.2 -1.3,-0.04 -1.89,-0.35c-0.39,-1.12 -0.91,-2.21 -1.72,-3.15Z" style="fill:#8e3229;fill-rule:nonzero;"/><path d="M308.02,148.81c-0.46,0.46 -0.92,0.93 -1.36,1.38c-0.75,-0.11 -1.52,-0.21 -2.29,-0.32c1.08,-0.8 2.3,-1.15 3.65,-1.06Z" style="fill:#5f5967;fill-rule:nonzero;"/><path d="M238.09,121.58c-0.25,-0.5 -0.26,-1 -0.04,-1.51c0.28,0.5 0.29,1 0.04,1.51Z" style="fill:#2f2e2f;fill-rule:nonzero;"/><path d="M324.15,75.9c-0.22,0.29 -0.51,0.55 -0.86,0.25c-0.32,-0.27 -0.16,-0.62 0.05,-0.91c0.27,0.22 0.54,0.44 0.81,0.66Z" style="fill:#2f2e2f;fill-rule:nonzero;"/><path d="M278.86,497.01c-0.24,-0.3 -0.43,-0.65 0,-0.89c0.13,-0.07 0.43,0.15 0.66,0.23c-0.22,0.21 -0.44,0.44 -0.66,0.66Z" style="fill:#44375f;fill-rule:nonzero;"/></svg>
