<?xml version="1.0"?><svg fill="#000000" xmlns="http://www.w3.org/2000/svg" viewBox="0 0 50 50" width="50px" height="50px">    <path d="M 20 2 C 19.632 2 19.293141 2.2013906 19.119141 2.5253906 L 16.431641 7.5253906 C 16.317641 7.7383906 16.283891 7.9857031 16.337891 8.2207031 L 16.939453 10.873047 L 8.4316406 26 L 6.625 26 C 6.264 26 5.9319063 26.194766 5.7539062 26.509766 L 0.12890625 36.509766 C -0.03409375 36.798766 -0.04253125 37.150266 0.10546875 37.447266 L 2.1054688 41.447266 C 2.2754687 41.785266 2.621 42 3 42 L 7.6171875 42 C 7.6421875 42 7.3137656 41.810953 7.1347656 41.501953 C 6.9557656 41.191953 6.9548125 40.811953 7.1328125 40.501953 L 15.701172 25.617188 C 15.707172 25.603188 15.718609 25.593078 15.724609 25.580078 L 26.132812 7.5019531 C 26.311813 7.1919531 26.664 7.017 27 7 C 27.355 7 27.683281 7.1881406 27.863281 7.4941406 L 44.863281 36.494141 C 45.044281 36.804141 45.045187 37.185094 44.867188 37.496094 C 44.688187 37.808094 44.358 38 44 38 L 30.644531 38 L 28.376953 41.939453 L 28.029297 42 L 9 42 L 10.724609 45.447266 C 10.893609 45.786266 11.238188 46 11.617188 46 L 28.443359 46 L 30.503906 49.507812 C 30.688906 49.823813 31.022234 50 31.365234 50 C 31.537234 50 31.712094 49.955328 31.871094 49.861328 C 32.347094 49.581328 32.506563 48.968187 32.226562 48.492188 L 30.763672 46 L 45 46 C 45.379 46 45.724531 45.786266 45.894531 45.447266 L 49.894531 37.447266 C 50.042531 37.150266 50.033094 36.798766 49.871094 36.509766 L 31.871094 4.5097656 C 31.693094 4.1947656 31.361 4 31 4 L 28.617188 4 L 27.894531 2.5527344 C 27.725531 2.2137344 27.379 2 27 2 L 20 2 z M 27.007812 9.9902344 L 22.050781 18.601562 L 26.148438 25.576172 C 26.155438 25.591172 26.166828 25.604141 26.173828 25.619141 L 26.990234 27.011719 L 31.943359 18.410156 L 27.007812 9.9902344 z M 33.107422 20.396484 L 27.003906 31 L 39.322266 31 L 33.107422 20.396484 z M 20.900391 20.595703 L 18.365234 25 L 23.488281 25 L 20.900391 20.595703 z M 17.214844 27 L 9.7285156 40 L 12.162109 40 L 19.646484 27 L 17.214844 27 z M 19.640625 31.021484 L 14.470703 40 L 24.917969 40 L 19.640625 31.021484 z M 23.123047 33 L 24.886719 36 L 42.253906 36 L 40.496094 33 L 23.123047 33 z"/></svg>