<svg id="icon" height="512" viewBox="0 0 128 128" width="512" xmlns="http://www.w3.org/2000/svg"><path d="m18.393 35.041c-.055-.674-.09-1.353-.09-2.041a24.887 24.887 0 0 1 43.171-16.887 22.577 22.577 0 0 1 30.826 6.887 18.466 18.466 0 0 1 25.4 23.656 18.46 18.46 0 0 1 -18.184 32.128 18.454 18.454 0 0 1 -25.566 3.316 19.9 19.9 0 0 1 -35.15-2.031 24.895 24.895 0 1 1 -20.4-45.028z" fill="#f0f5f9"/><path d="m1 58.782a24.91 24.91 0 0 0 37.8 21.291 19.892 19.892 0 0 0 35.15 2.021 18.445 18.445 0 0 0 25.565-3.31 18.467 18.467 0 0 0 26.975-20.418 18.459 18.459 0 0 1 -26.976 11.808 18.442 18.442 0 0 1 -25.565 3.31 19.882 19.882 0 0 1 -17.049 9.625c-8.041 0-11.776-2.155-11.509-9.358-3.765 2.284-13.42 4.269-18.141 4.269-12.285 0-23.844-11.867-25.874-23.563a25.252 25.252 0 0 0 -.376 4.325z" fill="#dbe2eb"/><g fill="#2f3a5a"><path d="m56.906 92.727a20.954 20.954 0 0 1 -18.536-11.255 25.9 25.9 0 1 1 -21.028-47.136c-.027-.468-.039-.91-.039-1.336a25.887 25.887 0 0 1 44.344-18.155 23.577 23.577 0 0 1 30.992 6.873 19.229 19.229 0 0 1 8.061-1.749 19.472 19.472 0 0 1 18.238 26.264 19.459 19.459 0 0 1 -19.172 33.817 19.456 19.456 0 0 1 -25.539 3.471 20.733 20.733 0 0 1 -17.321 9.206zm-18.106-13.658a1.022 1.022 0 0 1 .294.044 1 1 0 0 1 .616.541 18.894 18.894 0 0 0 33.385 1.927 1 1 0 0 1 1.455-.281 17.455 17.455 0 0 0 24.181-3.137 1 1 0 0 1 1.274-.251 17.459 17.459 0 0 0 17.195-30.393 1 1 0 0 1 -.423-1.26 17.461 17.461 0 0 0 -24.024-22.374 1 1 0 0 1 -1.294-.344 21.577 21.577 0 0 0 -29.459-6.579 1 1 0 0 1 -1.262-.171 23.887 23.887 0 0 0 -41.438 16.209c0 .6.028 1.242.087 1.96a1 1 0 0 1 -.7 1.035 23.894 23.894 0 1 0 19.585 43.22 1 1 0 0 1 .528-.146z"/><path d="m25.9 84.671a25.921 25.921 0 0 1 -25.9-25.892 1 1 0 0 1 2 0 23.895 23.895 0 0 0 44.88 11.43 1 1 0 0 1 1.756.959 25.9 25.9 0 0 1 -22.736 13.503z"/><path d="m95.953 36.308a1 1 0 0 1 -1-1 21.586 21.586 0 0 0 -39.183-12.498 1 1 0 1 1 -1.629-1.159 23.585 23.585 0 0 1 42.812 13.657 1 1 0 0 1 -1 1z"/><path d="m113.436 53.8a1 1 0 0 1 -.691-1.724 17.461 17.461 0 0 0 -12.045-30.1 1 1 0 0 1 0-2 19.462 19.462 0 0 1 13.426 33.544 1 1 0 0 1 -.69.28z"/></g><path d="m35.467 61.76h7.8v3.949h-7.8z" fill="#d1ccec"/><path d="m43.267 66.709h-7.8a1 1 0 0 1 -1-1v-3.949a1 1 0 0 1 1-1h7.8a1 1 0 0 1 1 1v3.949a1 1 0 0 1 -1 1zm-6.8-2h5.8v-1.949h-5.8z" fill="#2f3a5a"/><path d="m47.105 61.76h7.8v3.949h-7.8z" fill="#d1ccec"/><path d="m54.9 66.709h-7.8a1 1 0 0 1 -1-1v-3.949a1 1 0 0 1 1-1h7.8a1 1 0 0 1 1 1v3.949a1 1 0 0 1 -1 1zm-6.8-2h5.8v-1.949h-5.8z" fill="#2f3a5a"/><path d="m58.742 61.76h7.8v3.949h-7.8z" fill="#d1ccec"/><path d="m66.542 66.709h-7.8a1 1 0 0 1 -1-1v-3.949a1 1 0 0 1 1-1h7.8a1 1 0 0 1 1 1v3.949a1 1 0 0 1 -1 1zm-6.8-2h5.8v-1.949h-5.8z" fill="#2f3a5a"/><path d="m70.38 61.76h7.8v3.949h-7.8z" fill="#d1ccec"/><path d="m78.18 66.709h-7.8a1 1 0 0 1 -1-1v-3.949a1 1 0 0 1 1-1h7.8a1 1 0 0 1 1 1v3.949a1 1 0 0 1 -1 1zm-6.8-2h5.8v-1.949h-5.8z" fill="#2f3a5a"/><path d="m82.017 61.76h7.8v3.949h-7.8z" fill="#d1ccec"/><path d="m89.816 66.709h-7.8a1 1 0 0 1 -1-1v-3.949a1 1 0 0 1 1-1h7.8a1 1 0 0 1 1 1v3.949a1 1 0 0 1 -1 1zm-6.8-2h5.8v-1.949h-5.8z" fill="#2f3a5a"/><path d="m98 48.062h-70.712a2.541 2.541 0 0 0 -2.54 2.541l.006 17.83h3.987v-15.862h67.868v15.862h3.927v-17.833a2.54 2.54 0 0 0 -2.536-2.538z" fill="#c1cdd3"/><path d="m100.536 69.434h-3.928a1 1 0 0 1 -1-1v-14.863h-65.868v14.863a1 1 0 0 1 -1 1h-3.986a1 1 0 0 1 -1-1l-.006-17.834a3.544 3.544 0 0 1 3.54-3.542h70.712a3.544 3.544 0 0 1 3.539 3.54v17.836a1 1 0 0 1 -1.003 1zm-2.928-2h1.928v-16.834a1.541 1.541 0 0 0 -1.536-1.538h-70.712a1.542 1.542 0 0 0 -1.54 1.541l.006 16.831h1.986v-14.863a1 1 0 0 1 1-1h67.868a1 1 0 0 1 1 1z" fill="#2f3a5a"/><rect fill="#a9ddc7" height="54.966" rx="2.627" width="86.89" x="19.197" y="64.924"/><path d="m106.087 67.55v49.713a2.631 2.631 0 0 1 -2.628 2.628h-81.635a2.631 2.631 0 0 1 -2.627-2.628v-1.717h80.366a2.626 2.626 0 0 0 2.621-2.627v-48h1.275a2.631 2.631 0 0 1 2.628 2.631z" fill="#83bfac"/><path d="m103.46 120.891h-81.636a3.631 3.631 0 0 1 -3.627-3.627v-49.712a3.632 3.632 0 0 1 3.627-3.628h81.636a3.632 3.632 0 0 1 3.627 3.628v49.712a3.631 3.631 0 0 1 -3.627 3.627zm-81.636-54.966a1.628 1.628 0 0 0 -1.624 1.627v49.712a1.629 1.629 0 0 0 1.627 1.627h81.633a1.629 1.629 0 0 0 1.627-1.627v-49.712a1.628 1.628 0 0 0 -1.627-1.627z" fill="#2f3a5a"/><circle cx="34.843" cy="97.235" fill="#f0f5f9" r="12.032" transform="matrix(.383 -.924 .924 .383 -68.324 92.215)"/><path d="m34.843 110.267a13.033 13.033 0 1 1 13.032-13.033 13.047 13.047 0 0 1 -13.032 13.033zm0-24.065a11.033 11.033 0 1 0 11.032 11.032 11.045 11.045 0 0 0 -11.032-11.034z" fill="#2f3a5a"/><circle cx="34.843" cy="97.235" fill="#707583" r="8.066" transform="matrix(.383 -.924 .924 .383 -68.324 92.215)"/><path d="m34.843 106.3a9.066 9.066 0 1 1 9.065-9.067 9.078 9.078 0 0 1 -9.065 9.067zm0-16.132a7.066 7.066 0 1 0 7.065 7.065 7.074 7.074 0 0 0 -7.065-7.064z" fill="#2f3a5a"/><circle cx="34.843" cy="97.235" fill="#626772" r="3.775" transform="matrix(.383 -.924 .924 .383 -68.324 92.215)"/><path d="m34.843 102.01a4.776 4.776 0 1 1 4.775-4.776 4.782 4.782 0 0 1 -4.775 4.776zm0-7.551a2.776 2.776 0 1 0 2.775 2.775 2.779 2.779 0 0 0 -2.775-2.775z" fill="#2f3a5a"/><circle cx="90.441" cy="97.235" fill="#f0f5f9" r="12.032" transform="matrix(.383 -.924 .924 .383 -34.002 143.581)"/><path d="m90.441 110.267a13.033 13.033 0 1 1 13.033-13.033 13.048 13.048 0 0 1 -13.033 13.033zm0-24.065a11.033 11.033 0 1 0 11.033 11.032 11.045 11.045 0 0 0 -11.033-11.034z" fill="#2f3a5a"/><circle cx="90.441" cy="97.235" fill="#707583" r="8.066" transform="matrix(.383 -.924 .924 .383 -34.002 143.581)"/><path d="m90.441 106.3a9.066 9.066 0 1 1 9.066-9.067 9.077 9.077 0 0 1 -9.066 9.067zm0-16.132a7.066 7.066 0 1 0 7.066 7.065 7.074 7.074 0 0 0 -7.066-7.064z" fill="#2f3a5a"/><circle cx="90.441" cy="97.235" fill="#626772" r="3.775" transform="matrix(.383 -.924 .924 .383 -34.002 143.581)"/><path d="m90.441 102.01a4.776 4.776 0 1 1 4.776-4.776 4.782 4.782 0 0 1 -4.776 4.776zm0-7.551a2.776 2.776 0 1 0 2.776 2.775 2.778 2.778 0 0 0 -2.776-2.775z" fill="#2f3a5a"/><path d="m50.978 88.092h23.328v18.284h-23.328z" fill="#e1e6e9"/><path d="m74.306 107.377h-23.328a1 1 0 0 1 -1-1v-18.284a1 1 0 0 1 1-1h23.328a1 1 0 0 1 1 1v18.284a1 1 0 0 1 -1 1zm-22.328-2h21.328v-16.284h-21.328z" fill="#2f3a5a"/><path d="m54.555 92.888h16.173v8.693h-16.173z" fill="#ffc943"/><path d="m70.729 102.581h-16.173a1 1 0 0 1 -1-1v-8.693a1 1 0 0 1 1-1h16.173a1 1 0 0 1 1 1v8.693a1 1 0 0 1 -1 1zm-15.173-2h14.173v-6.693h-14.173z" fill="#2f3a5a"/><path d="m32.721 71.142h7.557v5.123h-7.557z" fill="#b0b3c1"/><path d="m40.277 77.266h-7.556a1 1 0 0 1 -1-1v-5.124a1 1 0 0 1 1-1h7.556a1 1 0 0 1 1 1v5.124a1 1 0 0 1 -1 1zm-6.556-2h5.556v-3.124h-5.556z" fill="#2f3a5a"/><path d="m45.792 71.142h7.557v5.123h-7.557z" fill="#b0b3c1"/><path d="m53.349 77.266h-7.557a1 1 0 0 1 -1-1v-5.124a1 1 0 0 1 1-1h7.557a1 1 0 0 1 1 1v5.124a1 1 0 0 1 -1 1zm-6.557-2h5.557v-3.124h-5.557z" fill="#2f3a5a"/><path d="m58.864 71.142h7.557v5.123h-7.557z" fill="#b0b3c1"/><path d="m66.42 77.266h-7.557a1 1 0 0 1 -1-1v-5.124a1 1 0 0 1 1-1h7.557a1 1 0 0 1 1 1v5.124a1 1 0 0 1 -1 1zm-6.557-2h5.557v-3.124h-5.557z" fill="#2f3a5a"/><path d="m71.935 71.142h7.557v5.123h-7.557z" fill="#b0b3c1"/><path d="m79.491 77.266h-7.556a1 1 0 0 1 -1-1v-5.124a1 1 0 0 1 1-1h7.556a1 1 0 0 1 1 1v5.124a1 1 0 0 1 -1 1zm-6.556-2h5.556v-3.124h-5.556z" fill="#2f3a5a"/><path d="m85.006 71.142h7.557v5.123h-7.557z" fill="#b0b3c1"/><path d="m92.563 77.266h-7.557a1 1 0 0 1 -1-1v-5.124a1 1 0 0 1 1-1h7.557a1 1 0 0 1 1 1v5.124a1 1 0 0 1 -1 1zm-6.557-2h5.557v-3.124h-5.557z" fill="#2f3a5a"/></svg>